# xmcd
#
# Track frame offsets: 
#        150
#        9617
#        29899
#        73834
#        88499
#        115613
#        152143
#        180630
#        189010
#        203781
#        233969
#
# Disc length: 3411 seconds
#
# Revision: 0
# Processed by: cddbd v1.5.2PL0 Copyright (c) Steve Scherf et al.
# Submitted via: ExactAudioCopyFreeDBPlugin 1.0
#
DISCID=950d510b
DTITLE=People Under The Stairs - Redheaded Stepfather- The Fake Leak
DYEAR=2006
DGENRE=Hip-Hop
TTITLE0=Step Intro 
TTITLE1=Lyrical Miracles 
TTITLE2=4 Elements 
TTITLE3=Sucka Emceez 
TTITLE4=Smokin' Blunts 
TTITLE5=Breakdance Pants 
TTITLE6=Graffiti Rap II 
TTITLE7=Street Hustla 
TTITLE8=Nothing At All (Bonus Track) 
TTITLE9=Suite For Any Major Dude (Bonus Track) 
TTITLE10=Untitled
EXTD=
EXTT0=
EXTT1=
EXTT2=
EXTT3=
EXTT4=
EXTT5=
EXTT6=
EXTT7=
EXTT8=
EXTT9=
EXTT10=
PLAYORDER=
